<?xml version="1.0" encoding="utf-8"?>
<!-- Generator: Adobe Illustrator 26.0.1, SVG Export Plug-In . SVG Version: 6.00 Build 0)  -->
<svg version="1.1" id="Layer_1" xmlns="http://www.w3.org/2000/svg" xmlns:xlink="http://www.w3.org/1999/xlink" x="0px" y="0px"
	 viewBox="0 0 498.9 569.87" style="enable-background:new 0 0 498.9 569.87;" xml:space="preserve">
<style type="text/css">
	.st0{fill:#21409A;}
	.st1{fill:#B3DEC9;}
	.st2{fill:#04213E;}
</style>
<g>
	<path class="st0" d="M353.78,46.94"/>
	<path class="st1" d="M229.88,156.43c-0.03,0.53-0.03,1.06-0.03,1.58c0-0.53-0.01-1.05-0.03-1.57
		C229.84,156.43,229.85,156.43,229.88,156.43z"/>
	<path class="st1" d="M469.23,347.15c0,103.54-83.93,187.47-187.46,187.47c-94.19,0-172.15-69.46-185.47-159.95
		c-17.78-1.25-31.8-16.06-31.8-34.15c0-18.92,15.33-34.24,34.24-34.24c0.01,0,0.01,0,0.02,0c0.03-0.09,0.04-0.17,0.06-0.26
		c18.07-0.94,32.43-15.89,32.43-34.2c0-8.94-3.42-17.07-9.02-23.16c0.02-0.03,0.04-0.07,0.07-0.1
		c-6.82-7.42-10.95-17.23-10.95-27.98c0-23.18,19.24-41.98,42.95-41.98c10.53,0,20.17,3.71,27.63,9.85c0,0,0,0,0,0
		c0.01,0.01,0.02,0.02,0.03,0.03c1.48,1.22,2.89,2.53,4.19,3.93c5.84,4.63,13.23,7.4,21.25,7.4c18.92,0,34.24-15.34,34.24-34.24
		c0-0.53,0.01-1.06,0.03-1.58c0.83-18.17,15.82-32.66,34.21-32.66c17.64,0,32.15,13.34,34.03,30.47
		C400.11,175.37,469.23,253.18,469.23,347.15z"/>
	<circle class="st1" cx="97.34" cy="275.28" r="24.43"/>
	<circle class="st1" cx="208.3" cy="166.63" r="24.43"/>
	<circle class="st1" cx="249.8" cy="89.2" r="17.07"/>
	<circle class="st1" cx="41.02" cy="250.85" r="17.07"/>
	<circle class="st1" cx="89.97" cy="172.88" r="17.07"/>
	<circle class="st1" cx="62.12" cy="98.49" r="10.78"/>
	<circle class="st1" cx="177.09" cy="89.2" r="10.78"/>
	<circle class="st1" cx="201.52" cy="46.21" r="10.78"/>
	<circle class="st1" cx="41.02" cy="183.66" r="10.78"/>
</g>
<g>
	<path class="st2" d="M274.85,283.29v169.77c-0.11,6.22-5.75,11.24-12.68,11.24c-3.5,0-6.65-1.29-8.95-3.35
		c-2.29-2.07-3.7-4.93-3.7-8.08V299.7h-64.18c-1.3,0-2.56-0.12-3.79-0.36c-0.01,0-0.01,0-0.02,0c-9.2-1.78-16.16-9.89-16.16-19.62
		v-5.77c0-5.79,2.47-11.01,6.41-14.66c-0.96,1.63-1.51,3.51-1.51,5.54v1.14c0,6.01,4.86,10.87,10.86,10.87h87.91
		C269.59,279.95,271.87,282.43,274.85,283.29z"/>
	<path class="st2" d="M304.65,281.53v170.57c-1.09,8.06-4.74,12.37-6.48,14.12c-9.94,10.06-26.99,5.94-32.4,4.63
		c-8.71-2.09-14.65-6.05-14.65-6.24c0.06-0.12,5.34,3.16,12.59,3.17c2.66,0.01,9.09,0.09,12.86-4.59c2.04-2.53,2.6-5.28,2.77-6.86
		v-5.17c-0.01-0.19-0.01-0.4-0.01-0.59V283.33c3.06-0.81,5.42-3.34,5.99-6.49h15.04C300.92,279.02,302.55,280.78,304.65,281.53z"/>
	<path class="st2" d="M381.03,288.28c0,3.16-1.29,6.01-3.35,8.08c-2.07,2.07-4.93,3.34-8.08,3.34h-60.31v-18.16
		c2.11-0.74,3.76-2.51,4.33-4.7h56.17C376.01,276.94,381.03,282.02,381.03,288.28z"/>
	<path class="st2" d="M388.81,270.83v5.77c0,5.79-2.47,11.01-6.41,14.66c0.96-1.63,1.51-3.51,1.51-5.54v-1.14
		c0-6.01-4.86-10.87-10.86-10.87h-5.17c-0.19,0.01-0.4,0.01-0.59,0.01h-53.58c-0.64-3.13-3.42-5.49-6.73-5.49
		c-3.32,0-6.1,2.36-6.73,5.49H285.3c-0.76-3.8-4.11-6.67-8.14-6.67s-7.38,2.87-8.13,6.67H184.4c-6.31,0-11.43-5.12-11.43-11.43
		c0-3.16,1.28-6.02,3.35-8.09c2.07-2.07,4.92-3.34,8.08-3.34h184.43C379.86,250.85,388.81,259.79,388.81,270.83z"/>
</g>
</svg>
