<?xml version="1.0" encoding="utf-8"?>
<!-- Generator: Adobe Illustrator 26.0.3, SVG Export Plug-In . SVG Version: 6.00 Build 0)  -->
<svg version="1.0" id="katman_1" xmlns="http://www.w3.org/2000/svg" xmlns:xlink="http://www.w3.org/1999/xlink" x="0px" y="0px"
	 viewBox="0 0 600 450" style="enable-background:new 0 0 600 450;" xml:space="preserve">
<style type="text/css">
	.st0{fill:#492055;}
</style>
<path class="st0" d="M551.5,150c0-38.6-31.4-72.1-70-72.1H172.8c-39.6,0.1-71.7,32.3-71.6,72c0,7.5,1.2,14.9,3.6,22.1
	c-13.6,2.8-26.1,9.4-36,19.1c-13.9,13.8-21.6,33-21.6,54.2c0,21.4,7.9,40.8,22.3,54.5c9.7,9.3,26.5,20.2,52.6,20.2h49.7
	c13.1,0,25.9-3.6,37.2-10.4c3.8,36,34.4,63.3,70.7,63c26.4,0.2,51.9-9.5,71.6-27.1c10.5-9.3,19.7-20.6,27.6-34.4
	c9.3,4.4,19.4,6.6,29.6,6.6h75.4c38.4,0,69.4-31.1,69.4-69.4L551.5,150z M122,263.9c-11.4,0-18-5.8-18-17.7c0-12.3,6.5-18.3,18-18.3
	s17.7,6,17.7,18.3C139.8,258.1,133.5,263.9,122,263.9z M248.7,263.9c-4.1,0-9-1.9-11.8-5.8c-8.5-11.8-26.8-37.7-26.8-37.7
	s-18.3,25.9-26.8,37.7c-2.7,3.8-7.6,5.8-11.8,5.8c-8.1,0.1-14.7-6.5-14.8-14.6c0-0.1,0-0.1,0-0.2c0-4.1,1.4-6.5,3-9l33-41.5
	L161,159.4c-2-2.6-3-5.8-3-9c0-8.1,6.5-14.7,14.6-14.7c0.1,0,0.1,0,0.2,0c4.6,0,8.9,2.1,11.8,5.8l25.7,35.2l25.7-35.2
	c2.8-3.6,7.2-5.8,11.8-5.8c8.1,0,14.7,6.5,14.7,14.6c0,0.1,0,0.1,0,0.2c0.1,3.3-1,6.5-3,9l-31.9,39.3l33,41.5c1.6,2.5,3,4.9,3,9
	C263.4,257.4,256.9,264,248.7,263.9C248.8,263.9,248.7,263.9,248.7,263.9L248.7,263.9z M386.8,156l-50.7,114.6
	c-12,26.8-29.2,45.8-56.5,45.8c-7.9,0-14.2-5.8-14.2-13.6c0-7.9,6.3-13.6,14.2-13.6c17.5,0,25.7-13.9,34.6-36.3l-42-96.9
	c-0.7-1.8-1.1-3.7-1.1-5.8c0-8.1,6.5-14.7,14.6-14.7c0.1,0,0.1,0,0.2,0c6.1-0.1,11.5,3.7,13.6,9.3l30,75.9l30-75.9
	c2.2-5.7,7.6-9.3,13.6-9.3c8.1,0,14.7,6.5,14.7,14.6c0,0.1,0,0.1,0,0.2C387.9,152.3,387.5,154.2,386.8,156z M483.7,261.7h-75.3
	c-6.9-0.1-12.5-5.7-12.5-12.5c0-3.8,1.4-6,3-8.2l32.5-43.6l0,0l20.6-27.6l5.5-7.5h-46.2c-6.8,0-12.3-5.5-12.3-12.3
	c0-6.8,5.5-12.3,12.3-12.3h70.1c7.3,0.1,13.2,6,13.2,13.2c0,3-1.1,6-3,8.3L434,236.6h49.7c6.9,0,12.5,5.6,12.5,12.6
	C496.2,256,490.6,261.7,483.7,261.7z"/>
</svg>
